<svg xmlns="http://www.w3.org/2000/svg" width="1000" height="1000" viewBox="0 0 1000 1000"><defs><style>.cls-1,.cls-10,.cls-3,.cls-5,.cls-6,.cls-7,.cls-8{stroke-width:0}.cls-11{opacity:.2}.cls-3{fill:#372c2e}.cls-5{fill:#f9bb70}.cls-6{fill:#3d261c}.cls-7{fill:#fff}.cls-8{fill:#de9e48}.cls-10{fill:#875b48}</style></defs><g id="Capa_5" data-name="Capa 5"><path d="M500 980.39c-64.86 0-127.77-12.7-186.99-37.75-57.2-24.2-108.58-58.83-152.7-102.96-44.12-44.12-78.76-95.5-102.96-152.7C32.3 627.76 19.6 564.85 19.6 499.99S32.3 372.22 57.35 313c24.19-57.2 58.83-108.58 102.96-152.7 44.12-44.12 95.5-78.76 152.7-102.96C372.23 32.29 435.14 19.59 500 19.59s127.77 12.7 186.99 37.75c57.2 24.19 108.58 58.83 152.7 102.96 44.12 44.12 78.76 95.5 102.96 152.7 25.05 59.22 37.75 122.13 37.75 186.99s-12.7 127.77-37.75 186.99c-24.2 57.2-58.83 108.58-102.96 152.7-44.12 44.12-95.5 78.76-152.7 102.96-59.22 25.05-122.13 37.75-186.99 37.75" style="stroke-width:0;fill:#ffe3c2"/><path d="M500 34.61c62.84 0 123.79 12.3 181.14 36.56 55.42 23.44 105.19 57 147.94 99.75s76.31 92.52 99.75 147.94c24.26 57.36 36.56 118.3 36.56 181.14s-12.3 123.79-36.56 181.14c-23.44 55.42-57 105.19-99.75 147.94s-92.52 76.31-147.94 99.75c-57.36 24.26-118.3 36.56-181.14 36.56s-123.79-12.3-181.14-36.56c-55.42-23.44-105.19-57-147.94-99.75s-76.31-92.52-99.75-147.94C46.91 623.78 34.61 562.84 34.61 500s12.3-123.79 36.56-181.14c23.44-55.42 57-105.19 99.75-147.94s92.52-76.31 147.94-99.75C376.22 46.91 437.16 34.61 500 34.61m0-30C226.4 4.61 4.61 226.4 4.61 500S226.41 995.39 500 995.39 995.39 773.59 995.39 500 773.6 4.61 500 4.61" class="cls-3"/></g><g id="Capa_9" data-name="Capa 9"><path d="M500 4.61C226.4 4.61 4.61 226.4 4.61 500c0 68.49 13.9 133.73 39.03 193.06l12-16.34 240.98-329.8c-12.1 10.34-30.77 22.76-54.51 27.62-1.21.31-6.25 1.45-15.97 1.45-8.79 0-21.42-.93-38.49-4.23-4.41.61-24.05 3.04-39.78.5-8.16-1.32-15.42-5.91-20.44-12.94-3.08-4.31-11.01-12.6-29.52-19.63-9.6-3.65-16.1-12.28-16.57-22-.33-6.74 2.18-18.75 22.65-23.54 2.57-.6 5.94-1.44 9.2-2.58 9.25-3.25 25.66-7.55 37.44-2.5 4.12-3.7 12.75-12.35 19-24.63 5.15-10.11 12.1-17.49 17.04-21.91 4.3-3.85 7.25-8.68 8.55-13.97 3.97-16.19 16.61-47.25 56.68-73.49 10.14-6.47 33.16-13.74 48.01 4.86 3.07 3.85 6.69 6.79 10.74 8.73 12.64 6.07 36.11 20.28 51.34 47.27 2.19 3.88 5.24 7.3 8.82 9.87l3.58 2.58c2.28 1.64 4.6 3.23 6.95 4.79L492.89 81.26c6.25-8.51 18.45-10.55 27.19-4.57l377.11 258.09c4.39 3.01 7.3 7.53 8.2 12.73.89 5.17-.33 10.36-3.44 14.61l-41.71 57.12c7.53 6.17 22.18 21.46 19.33 45.16 3.73 2.82 11.18 12.98 3.58 47.22-.28 1.25-.59 2.48-.91 3.72-.7 2.72-2.98 12.71-2.86 26.81.05 6.64-.63 13.01-2.03 18.95-13.08 55.42-21.08 60.13-23.71 61.68-2.08 1.23-3.97 1.32-5.37 1.08-1.4-.05-5.22-.27-10.52-1.36-3.71 10.41-18.18 16.71-27.3 19.72-2.59.86-4.74 1.62-6.75 2.41-109.72 42.82-199.78 126.29-200.67 127.13-.13.12-.28.22-.43.33L442.02 992.01c19.02 2.22 38.36 3.36 57.97 3.36 273.6 0 495.39-221.8 495.39-495.39S773.6 4.61 500 4.61" style="stroke-width:0;fill:none"/><path d="M499.01 333.06c.38 2.16-.12 4.33-1.4 6.11l-9.33 13c6.32 18.64 8.02 33.42 6.98 47.94l30.81-42.97c2.59-3.61 7.68-4.49 11.35-1.97l85.84 59.14c1.82 1.25 3.02 3.13 3.4 5.3.38 2.16-.12 4.33-1.4 6.11l-73.68 102.74c-1.59 2.22-4.13 3.41-6.7 3.41-1.61 0-3.24-.47-4.65-1.44l-33.08-22.79c2.56 20.77 2.83 46.45-1.38 74.69-4.02 27.01-1.59 47.41 7.19 60.81 2.69-7.07 9.13-17.8 24.51-29.78 5.94-4.63 13.23-7.58 21.06-8.51 4.54-.54 8.93-1.84 13.05-3.87 2.38-1.17 4.51-2.37 6.56-3.52 7.54-4.25 14.65-8.26 31.68-9.93 3.49-.34 6.7-1.37 9.44-3.01l-38.72-26.67c-1.82-1.25-3.03-3.13-3.4-5.3-.38-2.16.12-4.33 1.4-6.11l73.68-102.74c2.59-3.61 7.68-4.49 11.35-1.96l85.84 59.14c1.82 1.25 3.02 3.13 3.4 5.29.18 1.02.15 2.03-.05 3.01 12.11-9.66 29.07-20.84 47.08-25.37l40.43-54.14 53.61-73.43c1.5-2.05 2.09-4.54 1.66-7.02-.43-2.51-1.85-4.7-3.99-6.17L514.44 84.96c-1.69-1.16-3.63-1.71-5.56-1.71-3.04 0-6.03 1.37-7.92 3.95L389.84 238.52c3.22 1.92 6.49 3.75 9.8 5.49l26.69 14.02c21.17 6.67 37.68 25.45 49.1 55.84l20.17 13.9c1.82 1.25 3.02 3.13 3.4 5.3Zm269.41-36.08 85.84 59.14c1.82 1.25 3.02 3.13 3.4 5.3.38 2.16-.12 4.33-1.4 6.11l-73.68 102.74c-1.59 2.22-4.13 3.41-6.7 3.41-1.61 0-3.24-.47-4.65-1.44s-85.84-59.14-85.84-59.14c-1.82-1.25-3.02-3.13-3.4-5.3-.38-2.16.12-4.33 1.4-6.11l73.68-102.74c2.59-3.61 7.68-4.49 11.35-1.97m-126.14-86.55 85.84 59.14c1.82 1.25 3.02 3.13 3.4 5.3.38 2.16-.12 4.33-1.4 6.11l-73.68 102.74c-1.59 2.22-4.13 3.41-6.7 3.41-1.61 0-3.24-.47-4.65-1.44l-85.84-59.14c-1.82-1.25-3.02-3.13-3.4-5.29s.12-4.33 1.4-6.11l73.68-102.74c2.59-3.61 7.68-4.49 11.35-1.96ZM431.6 239.99c-1.82-1.25-3.02-3.13-3.4-5.3-.38-2.16.12-4.32 1.4-6.11l73.68-102.74c2.59-3.61 7.68-4.49 11.35-1.97l85.84 59.14c1.82 1.25 3.02 3.13 3.4 5.3.38 2.16-.12 4.33-1.4 6.11l-73.68 102.74c-1.59 2.22-4.12 3.41-6.69 3.41-1.61 0-3.24-.47-4.65-1.44s-85.84-59.14-85.84-59.14Z" style="stroke-width:0;fill:#563727"/><path d="M43.64 693.06s.01.03.02.05l11.97-16.39-12 16.34ZM600.61 773.02 439.84 991.76c.73.09 1.46.18 2.19.26L602.61 772.1c-.61.46-1.29.77-2 .92" class="cls-1"/><path d="M389.84 238.52 500.96 87.2c1.89-2.57 4.88-3.95 7.92-3.95 1.93 0 3.88.56 5.56 1.71l377.11 258.09c2.14 1.46 3.56 3.65 3.99 6.17.43 2.48-.16 4.97-1.66 7.02l-53.61 73.43 9.14-12.24c1.55-2.08 4.43-2.62 6.64-1.26.27.16 1.9 1.21 4.2 3.09l41.71-57.12c3.11-4.25 4.33-9.44 3.44-14.61-.89-5.2-3.8-9.72-8.2-12.73L520.09 76.71c-8.75-5.99-20.94-3.94-27.19 4.57L381.35 233.19c2.79 1.84 5.62 3.62 8.49 5.33" class="cls-6"/><path d="M394.99 252.85c-9.16-4.81-18.05-10.31-26.43-16.34l-3.58-2.58c-4.74-3.42-8.78-7.94-11.68-13.07-13.88-24.61-35.38-37.61-46.96-43.17-5.42-2.6-10.21-6.48-14.23-11.51-12.93-16.2-33.89-3.26-34.78-2.7-37.14 24.31-48.77 52.71-52.38 67.46-1.78 7.26-5.79 13.84-11.59 19.04-4.3 3.85-10.35 10.26-14.79 18.99-5.9 11.59-13.56 20.18-18.67 25.15 0 0 .02 0 .03.01.6.3 1.24.61 1.91.93.08.04.16.08.24.11.66.31 1.34.63 2.06.96.09.04.19.08.28.13.73.33 1.48.67 2.27 1.02.07.03.14.06.2.09 1.65.72 3.43 1.47 5.3 2.23.06.02.11.05.17.07.91.37 1.84.74 2.8 1.11.11.04.23.09.34.13q1.425.555 2.91 1.11l.33.12c1.02.38 2.07.77 3.14 1.15.05.02.09.03.14.05 2.21.79 4.51 1.58 6.89 2.37.1.03.2.07.31.1 1.14.37 2.29.74 3.46 1.11.14.04.28.09.43.13 1.17.37 2.36.73 3.56 1.09.12.04.24.07.35.1 1.25.37 2.52.74 3.81 1.1h.01c1.32.37 2.66.74 4.02 1.1.05.01.1.03.15.04 1.29.34 2.6.67 3.91 1 .15.04.3.08.45.11 1.28.32 2.58.63 3.88.93.17.04.34.08.52.12 1.32.3 2.64.6 3.98.88.12.03.25.05.37.08 2.79.59 5.61 1.13 8.47 1.63.13.02.25.05.38.07 1.36.23 2.74.46 4.11.67.19.03.39.06.58.09 1.36.2 2.72.4 4.09.58.19.02.38.05.57.07 1.4.18 2.8.35 4.21.5.11.01.22.02.32.03 1.44.15 2.89.29 4.34.41.04 0 .08 0 .12.01q2.145.18 4.29.3c.18.01.37.02.55.03 1.38.08 2.75.14 4.13.18.22 0 .45.01.67.02 1.37.04 2.74.06 4.11.07h.58c1.42 0 2.83-.01 4.25-.05h.21c1.41-.04 2.81-.1 4.21-.18.13 0 .25-.01.38-.02 1.37-.08 2.74-.19 4.1-.32.22-.02.43-.04.65-.06 1.33-.13 2.65-.28 3.97-.45l.69-.09q1.995-.27 3.96-.6c.17-.03.34-.06.52-.09 1.38-.24 2.75-.5 4.11-.79 1.06-.39 5.03-1.87 10.6-4.32.24-.1.48-.21.72-.32 2.22-.99 4.68-2.11 7.3-3.38.14-.07.29-.14.44-.21 1.1-.53 2.22-1.09 3.37-1.67 1.55-.79 3.14-1.61 4.75-2.48.05-.03.1-.05.15-.08 10.58-5.71 22.28-13.2 31.34-22.09.08-.08.16-.15.25-.23.03-.03.09-.08.15-.13.02-.02.04-.03.06-.05.08-.07.17-.14.29-.24.01 0 .02-.02.03-.03.11-.09.24-.2.39-.32.02-.02.04-.03.06-.05.16-.13.34-.27.53-.43.02-.02.04-.03.06-.05.19-.15.4-.32.63-.49.02-.01.03-.02.04-.04.24-.18.49-.38.76-.59.03-.03.07-.05.1-.08.55-.42 1.17-.89 1.85-1.39l.12-.09c.7-.51 1.46-1.05 2.28-1.63l.12-.09c.42-.29.85-.59 1.3-.89.01 0 .02-.01.03-.02.44-.3.9-.61 1.37-.92l.09-.06c.48-.32.97-.64 1.48-.96.04-.02.07-.05.11-.07 1.02-.65 2.1-1.32 3.22-1.99.06-.04.12-.07.18-.11 1.12-.67 2.29-1.34 3.5-2.02.07-.04.14-.08.22-.12 1.22-.68 2.49-1.35 3.8-2.02.07-.04.14-.07.21-.11.65-.33 1.31-.66 1.98-.98.06-.03.12-.06.17-.08.64-.31 1.3-.62 1.96-.92.06-.03.11-.05.17-.08.69-.31 1.38-.62 2.08-.93.1-.04.2-.08.29-.13.7-.3 1.41-.6 2.13-.89h.02c.72-.29 1.45-.58 2.19-.86.13-.05.25-.09.38-.14 1.47-.55 2.96-1.07 4.49-1.56.14-.04.28-.09.42-.13.75-.24 1.51-.47 2.27-.69.09-.03.18-.05.27-.08.7-.2 1.41-.39 2.12-.57.14-.04.27-.07.41-.11.76-.19 1.53-.38 2.31-.55.15-.03.3-.06.45-.1.71-.15 1.41-.3 2.13-.44.11-.02.23-.05.34-.07.78-.15 1.56-.28 2.35-.4.18-.03.37-.06.55-.08.77-.11 1.53-.22 2.31-.31.04 0 .07-.01.11-.01l-5.51-2.89Z" class="cls-5"/><path d="M154.04 290.88c1.34.88 3.32 1.99 5.84 3.25 5.11-4.97 12.77-13.56 18.67-25.15 4.45-8.73 10.5-15.15 14.79-18.99 5.8-5.2 9.81-11.78 11.59-19.04 3.62-14.76 15.24-43.15 52.38-67.46.89-.56 21.85-13.51 34.78 2.7 4.02 5.04 8.81 8.91 14.23 11.51 11.58 5.56 33.08 18.56 46.96 43.17 2.9 5.14 6.94 9.66 11.68 13.07l3.58 2.58c8.38 6.03 17.27 11.53 26.43 16.34l5.51 2.89s-.07.01-.11.01c8.23-.95 16.85-.53 25.44 2.09.17.05.33.11.5.16l-26.69-14.02c-3.31-1.74-6.58-3.57-9.8-5.49-2.87-1.71-5.7-3.49-8.49-5.33-2.35-1.55-4.67-3.15-6.95-4.79l-3.58-2.58c-3.58-2.57-6.62-5.99-8.82-9.87-15.23-26.99-38.7-41.2-51.34-47.27-4.05-1.95-7.67-4.88-10.74-8.73-14.85-18.61-37.87-11.34-48.01-4.86-40.07 26.23-52.71 57.3-56.68 73.49-1.3 5.29-4.25 10.12-8.55 13.97-4.93 4.42-11.89 11.8-17.04 21.91-6.25 12.28-14.89 20.92-19 24.63 1.18.51 2.32 1.11 3.4 1.81Z" class="cls-3"/><path d="M226.58 315.24c-2.86-.5-5.68-1.04-8.47-1.63 2.79.59 5.61 1.13 8.47 1.63M208.91 311.5c-1.32-.33-2.62-.66-3.91-1 1.29.34 2.6.67 3.91 1M217.74 313.54c-1.34-.28-2.66-.58-3.98-.88 1.32.3 2.64.6 3.98.88M213.24 312.54c-1.3-.3-2.6-.61-3.88-.93 1.28.32 2.58.63 3.88.93M231.07 315.98c-1.38-.21-2.75-.43-4.11-.67 1.36.23 2.74.46 4.11.67M249.6 317.98c-1.43-.09-2.86-.18-4.29-.3q2.145.18 4.29.3M245.19 317.67c-1.45-.12-2.9-.26-4.34-.41 1.44.15 2.89.29 4.34.41M204.85 310.46c-1.35-.36-2.69-.72-4.02-1.1 1.32.37 2.66.74 4.02 1.1M240.53 317.22c-1.41-.15-2.81-.32-4.21-.5 1.4.18 2.8.35 4.21.5M235.75 316.64c-1.37-.18-2.73-.37-4.09-.58 1.36.2 2.72.4 4.09.58M188.9 305.73c-2.38-.78-4.68-1.58-6.89-2.37 2.21.79 4.51 1.58 6.89 2.37M172.17 299.61c-1.88-.76-3.65-1.51-5.3-2.23 1.65.72 3.43 1.47 5.3 2.23M166.66 297.29c-.78-.34-1.54-.68-2.27-1.02.73.33 1.48.67 2.27 1.02M175.14 300.79c-.96-.37-1.89-.74-2.8-1.11.91.37 1.84.74 2.8 1.11M161.82 295.07c-.66-.32-1.3-.63-1.91-.93.6.3 1.24.61 1.91.93M164.11 296.15c-.71-.33-1.4-.65-2.06-.96.66.31 1.34.63 2.06.96M200.82 309.36c-1.29-.36-2.55-.73-3.81-1.1 1.25.37 2.52.74 3.81 1.1M196.66 308.16c-1.2-.36-2.39-.72-3.56-1.09 1.17.37 2.36.73 3.56 1.09M178.4 302.04c-.99-.37-1.97-.74-2.91-1.11q1.425.555 2.91 1.11M192.67 306.94c-1.17-.37-2.33-.74-3.46-1.11 1.14.37 2.29.74 3.46 1.11M254.28 318.2c-1.38-.05-2.75-.11-4.13-.18 1.38.08 2.75.14 4.13.18M181.87 303.31c-1.07-.38-2.11-.77-3.14-1.15 1.02.38 2.07.77 3.14 1.15M263.89 318.23c-1.41.04-2.83.05-4.25.05 1.42 0 2.83-.01 4.25-.05M314.02 303.14c-.05.03-.1.05-.15.08.05-.03.1-.05.15-.08M309.11 305.71c-1.15.58-2.27 1.14-3.37 1.67 1.1-.53 2.22-1.09 3.37-1.67M347.18 279.53s-.04.03-.06.05c.02-.02.04-.03.06-.05M346.14 280.38l-.03.03c.01 0 .02-.02.03-.03M346.59 280.01s-.04.03-.06.05c.02-.02.04-.03.06-.05M305.31 307.6c-2.62 1.27-5.08 2.4-7.3 3.38 2.22-.99 4.68-2.11 7.3-3.38M345.82 280.64s-.04.03-.06.05c.02-.02.04-.03.06-.05M268.31 318.04c-1.4.08-2.8.14-4.21.18 1.41-.04 2.81-.1 4.21-.18M272.79 317.7c-1.36.13-2.73.23-4.1.32 1.37-.08 2.74-.19 4.1-.32M259.07 318.29c-1.37 0-2.74-.03-4.11-.07 1.37.04 2.74.06 4.11.07M282.06 316.5c-1.31.22-2.64.42-3.96.6q1.995-.27 3.96-.6M297.29 311.3c-5.57 2.45-9.54 3.93-10.6 4.32 1.06-.39 5.03-1.87 10.6-4.32M286.69 315.62c-1.36.29-2.73.55-4.11.79 1.38-.24 2.75-.5 4.11-.79M277.41 317.2c-1.32.17-2.64.32-3.97.45 1.33-.13 2.65-.28 3.97-.45M398.08 256.07c-.18.03-.37.05-.55.08.18-.03.37-.06.55-.08M395.17 256.55c-.11.02-.23.04-.34.07.11-.02.23-.05.34-.07M375.26 262.74c-.1.04-.2.08-.29.13.1-.04.2-.08.29-.13M372.88 263.79c-.06.03-.11.05-.17.08.06-.03.11-.05.17-.08M392.71 257.05c-.15.03-.3.06-.45.1.15-.03.3-.06.45-.1M370.75 264.8c-.06.03-.12.06-.17.08.06-.03.12-.06.17-.08M379.97 260.84c-.13.05-.25.09-.38.14.13-.05.25-.09.38-.14M389.95 257.7c-.14.03-.27.07-.41.11.14-.04.27-.07.41-.11M384.88 259.15c-.14.04-.28.09-.42.13.14-.04.28-.09.42-.13M377.41 261.84h-.02zM387.42 258.38c-.09.03-.18.05-.27.08.09-.03.18-.05.27-.08M348.71 278.34s-.07.05-.1.08c.03-.03.07-.05.1-.08M347.85 279s-.03.02-.04.04c.02-.01.03-.02.04-.04M353.08 275.15l-.12.09zM350.68 276.86l-.12.09zM354.41 274.24s-.02.01-.03.02c.01 0 .02-.01.03-.02M355.87 273.26l-.09.06zM357.46 272.23s-.07.05-.11.07c.04-.02.07-.05.11-.07M368.6 265.86c-.07.04-.14.07-.21.11.07-.04.14-.07.21-.11M360.87 270.12c-.06.04-.12.07-.18.11.06-.04.12-.07.18-.11M364.37 268.11c.07-.04.14-.08.22-.12-.07.04-.14.08-.22.12" class="cls-1"/><path d="m593.21 190.16-82.83-57.07-71.53 99.74 82.84 57.07z" class="cls-10"/><path d="M517.44 299.12c1.41.97 3.04 1.44 4.65 1.44 2.57 0 5.1-1.19 6.69-3.41l73.68-102.74c1.28-1.78 1.77-3.95 1.4-6.11-.38-2.16-1.59-4.04-3.4-5.3l-85.84-59.14c-3.67-2.53-8.75-1.64-11.35 1.97l-73.68 102.74c-1.28 1.78-1.77 3.95-1.4 6.11.38 2.16 1.58 4.04 3.4 5.3l85.84 59.14Zm-78.59-66.29 71.53-99.74 82.83 57.07-71.53 99.74z" class="cls-6"/><path d="m638.04 219.64-71.53 99.74 82.84 57.08 71.52-99.75z" class="cls-10"/><path d="M555.86 321.24c.38 2.16 1.59 4.04 3.4 5.29l85.84 59.14c1.41.97 3.04 1.44 4.65 1.44 2.57 0 5.1-1.19 6.7-3.41l73.68-102.74c1.28-1.78 1.77-3.95 1.4-6.11-.38-2.16-1.58-4.04-3.4-5.3l-85.84-59.14c-3.67-2.53-8.76-1.65-11.35 1.96l-73.68 102.74c-1.28 1.78-1.78 3.95-1.4 6.11Zm93.49 55.22-82.83-57.07 71.53-99.74 82.83 57.07z" class="cls-6"/><path d="m847.01 363.27-82.83-57.08-71.53 99.75 82.83 57.07z" class="cls-10"/><path d="M682 407.79c.38 2.16 1.59 4.04 3.4 5.3l85.84 59.14c1.41.97 3.04 1.44 4.65 1.44 2.57 0 5.1-1.19 6.7-3.41l73.68-102.74c1.28-1.78 1.77-3.95 1.4-6.11-.38-2.16-1.58-4.04-3.4-5.3l-85.84-59.14c-3.67-2.53-8.76-1.65-11.35 1.97L683.4 401.68c-1.28 1.78-1.77 3.95-1.4 6.11m10.65-1.85 71.53-99.74 82.83 57.07-71.53 99.74z" class="cls-6"/><path d="m488.35 334.91-9.06-6.24.48 2.12c1.57 3.49 3 6.84 4.31 10.08z" class="cls-10"/><path d="M484.08 340.87c1.59 3.93 2.98 7.69 4.2 11.3l9.33-13c1.28-1.78 1.78-3.95 1.4-6.11s-1.59-4.05-3.4-5.3l-20.17-13.9c.42 1.12.84 2.26 1.25 3.41.07.18.12.37.16.56l2.45 10.83 9.06 6.24-4.27 5.96Z" class="cls-6"/><path d="m616.01 421.47-82.83-57.07-41.21 57.47c-4.97 23.6.14 35.91.98 37.7 4.42 6.05 8.96 18.1 12.09 34.47l39.45 27.18 71.53-99.74Z" class="cls-10"/><path d="M540.24 530.43c1.41.97 3.04 1.44 4.65 1.44 2.57 0 5.11-1.19 6.7-3.41l73.68-102.74c1.28-1.78 1.77-3.95 1.4-6.11-.38-2.16-1.59-4.04-3.4-5.3l-85.84-59.14c-3.67-2.53-8.75-1.64-11.35 1.97l-30.81 42.97c-.5 7.04-1.64 14.02-3.21 21.36-.03.13-.05.26-.08.39l41.21-57.47 82.83 57.07-71.53 99.74-39.45-27.18c.81 4.26 1.53 8.8 2.13 13.61l33.08 22.79Z" class="cls-6"/><path d="m659.31 450.95-71.53 99.75 38.71 26.67c.21-.34.4-.68.58-1.03 5.55-10.9 24.26-17.96 35.66-16.1.18.03 4.52.6 18.23-10.02 6.8-5.26 14.09-9.65 21.68-13.03l27.34-12.2 12.16-16.96-82.83-57.07Z" class="cls-10"/><path d="M752.8 506.17c-.38-2.16-1.59-4.04-3.4-5.29l-85.84-59.14c-3.67-2.53-8.76-1.65-11.35 1.96l-73.68 102.74c-1.28 1.78-1.78 3.95-1.4 6.11s1.58 4.04 3.4 5.3l38.72 26.67c.96-.57 1.86-1.22 2.7-1.93 1.93-1.66 3.45-3.41 4.54-5.22l-38.71-26.67 71.53-99.75 82.83 57.07-12.16 16.96 1.69-.76c4.9-2.19 9.46-5.12 13.55-8.74 2.22-1.96 4.75-4.09 7.52-6.31.2-.98.22-2 .05-3.01Z" class="cls-6"/><path d="M353.53 308.94c.84-.23 1.6-.45 2.3-.65.77-.22 1.55-.47 2.33-.76 2.33-.85 4.67-1.98 6.98-3.36 12.1-7.24 25-10.92 38.34-11.03 2.5-.02 5.01.08 7.54.32q2.535.225 5.07.63c9.33 1.46 18.8 4.61 28.31 9.44.98.5 1.94 1.01 2.89 1.53.17.09.33.18.5.27.9.49 1.78 1 2.65 1.5.18.1.35.21.53.31.87.52 1.73 1.03 2.57 1.56.09.05.17.11.26.16.8.5 1.58 1 2.35 1.51.13.09.26.17.39.26.78.52 1.55 1.04 2.29 1.55.16.11.32.22.48.34.74.52 1.46 1.03 2.17 1.54l.33.24c.68.5 1.34.99 1.99 1.48.07.05.14.11.21.16.68.52 1.33 1.03 1.96 1.53.06.05.13.1.19.14-10.37-27.71-24.91-44.58-43.25-50.18-2.05-.63-4.11-1.1-6.18-1.44-1.03-.17-2.06-.3-3.1-.41-.52-.05-1.03-.09-1.55-.13-29.38-2.02-57.86 21.2-59.86 22.87-23.33 22.82-60.9 36.26-62.49 36.83-.2.07-.4.13-.6.17-9.59 2.09-19.57 2.99-29.6 2.99-49.21 0-99.55-21.57-110.98-29.06-5.91-3.87-17.9-3.21-32.05 1.76-3.71 1.31-7.42 2.23-10.24 2.89-15.41 3.6-15.06 10.91-14.94 13.31.28 5.75 4.26 10.91 10.14 13.14 19.92 7.57 29.54 16.78 34.11 23.17 3.45 4.83 8.39 7.99 13.89 8.88 15.89 2.57 37.35-.6 37.57-.64q.375-.06.75-.06c.32 0 .65.03.96.09 35.85 7.04 50.71 3.12 50.85 3.08.11-.03.26-.07.38-.09 28.12-5.71 48.65-23.2 58.39-33.12 7.39-7.53 16.69-12.84 26.87-15.35 13.25-3.26 22.45-5.73 28.3-7.37" class="cls-8"/><path d="m315.95 320.47 4.04 2.95-1.65-4.72 6.89-2.39c-10.19 2.51-19.48 7.82-26.87 15.35-9.73 9.92-30.26 27.41-58.39 33.12-.11.02-.27.06-.38.09-.15.04-15.01 3.96-50.85-3.08q-.48-.09-.96-.09-.375 0-.75.06c-.21.03-21.67 3.21-37.57.64-5.51-.89-10.44-4.04-13.89-8.88-4.57-6.39-14.19-15.6-34.11-23.17-5.88-2.23-9.86-7.39-10.14-13.14-.12-2.4-.47-9.71 14.94-13.31 2.82-.66 6.53-1.58 10.24-2.89 14.16-4.97 26.14-5.63 32.05-1.76 11.44 7.49 61.78 29.06 110.98 29.06 10.02 0 20.01-.9 29.6-2.99.2-.04.4-.1.6-.17 1.59-.56 39.16-14.01 62.49-36.83 2.01-1.67 30.48-24.89 59.86-22.87.52.04 1.03.08 1.55.13 1.03.1 2.06.24 3.1.41 2.06.34 4.13.81 6.18 1.44 18.34 5.6 32.88 22.47 43.25 50.18-.06-.05-.13-.1-.19-.14 7.8 6.18 12.41 11.19 12.73 11.55l-3.7 3.36 4.56-2.06.21.48-.48-2.12-2.45-10.83c-.04-.19-.1-.38-.16-.56-.41-1.15-.82-2.29-1.25-3.41-11.43-30.4-27.93-49.17-49.1-55.84-.17-.05-.33-.11-.5-.16-8.59-2.62-17.21-3.04-25.44-2.09-.77.09-1.54.19-2.31.31-.18.03-.37.05-.55.08-.79.12-1.57.25-2.35.4-.11.02-.23.04-.34.07-.71.14-1.42.28-2.13.44-.15.03-.3.06-.45.1-.77.17-1.54.36-2.31.55-.14.03-.27.07-.41.11-.71.18-1.42.37-2.12.57-.09.03-.18.05-.27.08-.76.22-1.52.45-2.27.69-.14.04-.28.09-.42.13-1.52.49-3.02 1.01-4.49 1.56-.13.05-.25.09-.38.14-.74.28-1.47.56-2.19.86h-.02c-.72.29-1.43.59-2.13.89-.1.04-.2.08-.29.13-.7.3-1.4.61-2.08.93-.06.03-.11.05-.17.08-.66.3-1.32.61-1.96.92-.06.03-.12.06-.17.08-.67.33-1.33.65-1.98.98-.07.04-.14.07-.21.11-1.31.67-2.58 1.34-3.8 2.02-.07.04-.14.08-.22.12-1.21.67-2.38 1.35-3.5 2.02-.06.04-.12.07-.18.11-1.13.68-2.2 1.34-3.22 1.99-.04.02-.07.05-.11.07-.51.32-1 .64-1.48.96l-.09.06c-.47.31-.93.62-1.37.92-.01 0-.02.01-.03.02-.45.3-.88.6-1.3.89l-.12.09c-.82.57-1.58 1.12-2.28 1.63l-.12.09c-.68.5-1.3.97-1.85 1.39-.03.03-.07.05-.1.08-.27.21-.52.4-.76.59-.02.01-.03.02-.04.04-.22.18-.43.34-.63.49-.02.02-.04.03-.06.05-.2.16-.37.3-.53.43-.02.02-.04.03-.06.05-.14.12-.27.22-.39.32-.01 0-.02.02-.03.03-.11.09-.21.17-.29.24-.02.02-.04.04-.06.05-.06.05-.12.1-.15.13-.08.07-.17.15-.25.23-9.06 8.9-20.76 16.38-31.34 22.09-.05.03-.1.05-.15.08-1.62.87-3.2 1.7-4.75 2.48-1.15.58-2.27 1.14-3.37 1.67-.14.07-.29.14-.44.21-2.62 1.27-5.08 2.4-7.3 3.38-.24.11-.48.21-.72.32-5.57 2.45-9.54 3.93-10.6 4.32-1.36.29-2.73.55-4.11.79-.17.03-.34.06-.52.09-1.31.22-2.64.42-3.96.6l-.69.09c-1.32.17-2.64.32-3.97.45-.22.02-.43.04-.65.06-1.36.13-2.73.23-4.1.32-.13 0-.25.01-.38.02-1.4.08-2.8.14-4.21.18h-.21c-1.41.04-2.83.05-4.25.05h-.58c-1.37 0-2.74-.03-4.11-.07-.22 0-.45-.01-.67-.02-1.38-.05-2.75-.11-4.13-.18-.18-.01-.37-.02-.55-.03-1.43-.09-2.86-.18-4.29-.3-.04 0-.08 0-.12-.01-1.45-.12-2.9-.26-4.34-.41-.11-.01-.22-.02-.32-.03-1.41-.15-2.81-.32-4.21-.5-.19-.02-.38-.05-.57-.07-1.37-.18-2.73-.37-4.09-.58-.2-.03-.39-.06-.58-.09-1.38-.21-2.75-.43-4.11-.67-.13-.02-.26-.05-.38-.07-2.86-.5-5.68-1.04-8.47-1.63-.12-.03-.25-.05-.37-.08-1.34-.28-2.66-.58-3.98-.88-.17-.04-.34-.08-.52-.12-1.3-.3-2.6-.61-3.88-.93-.15-.04-.3-.08-.45-.11-1.32-.33-2.62-.66-3.91-1-.05-.01-.1-.03-.15-.04-1.35-.36-2.69-.72-4.02-1.1h-.01c-1.29-.36-2.55-.73-3.81-1.1-.12-.03-.24-.07-.35-.1-1.2-.36-2.39-.72-3.56-1.09-.14-.04-.28-.09-.43-.13-1.17-.37-2.32-.74-3.46-1.11-.1-.03-.2-.07-.31-.1-2.38-.78-4.68-1.58-6.89-2.37-.05-.02-.09-.03-.14-.05-1.07-.38-2.11-.77-3.14-1.15l-.33-.12c-.99-.37-1.97-.74-2.91-1.11-.11-.04-.23-.09-.34-.13-.96-.37-1.89-.74-2.8-1.11-.06-.02-.11-.05-.17-.07-1.88-.76-3.65-1.51-5.3-2.23-.07-.03-.14-.06-.2-.09-.79-.34-1.54-.68-2.27-1.02-.09-.04-.19-.08-.28-.13-.71-.33-1.4-.65-2.06-.96-.08-.04-.16-.08-.24-.11-.66-.32-1.3-.63-1.91-.93 0 0-.02 0-.03-.01-2.52-1.26-4.5-2.37-5.84-3.25-1.08-.71-2.22-1.31-3.4-1.81-11.78-5.04-28.19-.75-37.44 2.5-3.26 1.15-6.63 1.98-9.2 2.58-20.47 4.78-22.98 16.8-22.65 23.54.47 9.72 6.98 18.36 16.57 22 18.51 7.03 26.44 15.32 29.52 19.63 5.01 7.02 12.27 11.62 20.44 12.94 15.73 2.54 35.37.11 39.78-.5 17.08 3.31 29.7 4.23 38.49 4.23 9.72 0 14.76-1.13 15.97-1.45 23.74-4.86 42.41-17.28 54.51-27.62l19.33-26.46Z" class="cls-3"/><path d="M403.48 293.14c2.5-.02 5.01.08 7.54.32-2.53-.23-5.04-.34-7.54-.32M416.09 294.08c-1.7-.27-3.39-.47-5.07-.63q2.535.225 5.07.63M447.79 305.32c-.16-.09-.33-.18-.5-.27.17.09.33.18.5.27M450.97 307.14c-.18-.1-.35-.21-.53-.31.18.1.35.21.53.31M461.81 314.29l-.33-.24zM464.01 315.93c-.07-.05-.14-.11-.21-.16.07.05.14.11.21.16M456.54 310.62c-.13-.09-.26-.17-.39-.26.13.09.26.17.39.26M453.8 308.86c-.09-.05-.17-.11-.26-.16.09.05.17.11.26.16M459.32 312.51c-.16-.11-.32-.22-.48-.34.16.11.32.22.48.34" class="cls-1"/><path d="M482.52 514.41c7.68 5.44 9.89 8.28 16.35 14.47-1.25-32.96-8.52-56.24-14.17-63.64l-.38-.57c-.35-.62-8.46-15.43-2.06-45.29 5.63-26.25 5.39-46.56-11.49-84.19-.6-.63-1.73-1.76-3.32-3.25L455.99 321l-15-8-161.5 212.8c43.38-55.37 133.41-60.69 203.02-11.39Z" class="cls-8"/><path d="M493.94 606.53c-1.1-8.46-8.97-15.48-13.94-19.53-6.61-5.39-13.35-6.74-20.02-8.28-6.66-1.5-13.12-1.89-19.39-1.17s-12.38 2.32-18.31 4.78c-5.85 2.42-11.55 5.15-17.09 8.2-5.45 3.05-10.76 6.08-15.87 9.06-5.12 3.04-10.01 5.5-14.75 7.4-4.72 1.92-9.23 2.89-13.54 2.97-4.31.07-8.37-1.24-12.21-3.96-2.56-1.81-4.68-4.01-6.3-6.53-1.61-2.54-2.58-5.33-2.83-8.38-.25-3.02.17-6.29 1.3-9.72 1.11-3.45 3.06-7.04 5.83-10.82 3.53-4.8 7.34-8.8 11.49-11.97 4.17-3.16 8.08-5.75 11.78-7.78 3.68-2.01 6.9-3.65 9.7-4.86 2.79-1.24 4.5-2.33 5.21-3.29s1.01-1.9.89-2.84c-.13-.92-.64-1.95-1.59-3.1-.92-1.13-2.26-2.4-3.81-3.78-1.7-1.4-3.85-3.02-6.44-4.85-2.31-1.63-4.28-2.97-5.88-3.97-1.63-1.06-3.03-1.8-4.21-2.31-1.19-.5-2.21-.83-3.05-.98-.87-.1-2.03-.07-3.55.19-1.54.25-3.94 1.26-7.25 3.02-3.35 1.77-6.78 4.02-10.4 6.78-3.62 2.72-7.23 5.91-10.79 9.47-.73.73-1.29 1.57-1.99 2.32l-22.08-15.63-15.14 20.61 22.08 15.63c-2.26 4.14-4.22 8.36-5.77 12.68-3.05 8.39-4.37 16.6-4.01 24.63s2.6 15.77 6.64 23.22c4.05 7.43 10.2 14.08 18.49 19.94 7.2 5.1 14.16 8.43 20.84 9.98 6.67 1.57 13.17 2 19.41 1.32s12.27-2.21 18.12-4.57c5.87-2.34 11.54-5.06 17-8.07 5.45-3.05 10.72-6.02 15.78-8.94s9.89-5.3 14.53-7.11c4.68-1.82 9.16-2.79 13.49-2.91 4.34-.08 8.48 1.22 12.39 3.99 3.42 2.42 6.02 5.19 7.89 8.39 1.85 3.19 2.86 6.58 3.04 10.22.19 3.64-.46 7.48-1.87 11.52s-3.65 8.15-6.73 12.35c-4.68 6.37-9.55 11.46-14.56 15.28-5.07 3.81-9.72 6.82-14.08 9.05-4.33 2.23-8.06 3.95-11.17 5.13-3.12 1.2-5.11 2.41-6 3.62-.65.88-.94 1.82-.95 2.8 0 1.02.44 2.1 1.32 3.33s2.18 2.56 3.92 4.08 3.98 3.24 6.74 5.19c4.1 2.9 7.4 4.86 9.95 5.93 2.53 1.06 4.8 1.42 6.78 1.11 1.98-.32 4.66-1.22 8.05-2.74s7.16-3.69 11.36-6.58c4.16-2.88 8.59-6.48 13.26-10.81 4.64-4.33 9.11-9.45 13.41-15.3.18-.25.31-.51.51-.79l20.56 14.56 15.14-20.61-23.31-16.51c.49-1.15 1-2.34 1.54-3.47 1.49-3.12 2.49-4.12 2.49-12.12.43.72 1.04 1.36 1.75 1.92-9.06-11.07-13.67-26.62-13.81-46.39ZM582.6 631.13c-4.46-.36-8.75-1.28-12.9-2.16l-.42-.09c-.65-.14-5.34-.72-17.43 7.34.69-.41 1.4-.82 2.14-1.22 5.01 31.11-1.73 49.58-20.36 74.95l59.84-78.27c-3.75-.08-7.39-.26-10.88-.55ZM522 656c.16-.06.3-.12.46-.18-1.72.45-3.44.75-5.06.86 1.62.1 3.13-.15 4.59-.68ZM496 580c-.02.13-.03.27-.05.42 1.69-11.44 2.61-22.34 2.95-32.56-.36 8.42-1.22 18.08-2.9 32.14M629.98 716.18l69.01-98.31-.56-.14c-14.52.02-42.17 1.11-68.88 7.89L369.41 977.99c19.27 5.25 39 9.37 59.13 12.28l201.45-274.09Z" class="cls-8"/><path d="M533.64 709.95c-42.53 57.91-134.36 64.2-205.09 14.11s-93.64-137.64-51.12-195.54L91.98 781.03c19.17 27.78 41.1 53.5 65.39 76.77l119.45 84.59c21.14 10.69 43.16 19.91 65.91 27.52l190.91-259.95Zm-309.38 67.73c12.75-17.36 42.23-17.9 65.8-1.21s32.35 44.33 19.61 61.69c-12.76 17.38-42.23 17.9-65.8 1.21s-32.37-44.31-19.61-61.69M413 301l-36 5-42.33 18.26c-2.15.54-4.41 1.11-6.82 1.7l-4.74 1.66L48.3 703.72c8.18 18.11 17.42 35.64 27.64 52.52L413 301.01Z" class="cls-8"/><path d="M599.62 773.13c-1.17 0-2.34-.41-3.28-1.23-1.93-1.68-2.28-4.55-.81-6.65l34.45-49.08-201.45 274.09c3.76.54 7.52 1.04 11.31 1.5l160.77-218.74c-.33.07-.66.1-.99.1Z" class="cls-3"/><path d="m698.42 617.73.56.14.1-.14z" class="cls-1"/><path d="m323.11 327.62-1.47.51-1.65-4.72-4.04-2.95-19.33 26.46L55.63 676.73l-11.97 16.39c1.51 3.56 3.05 7.09 4.64 10.6l274.81-376.09ZM471.3 335.73s-.2-.21-.52-.55c16.88 37.63 17.12 57.93 11.49 84.19-6.4 29.87 1.71 44.68 2.06 45.29l.38.57c5.65 7.4 12.92 30.68 14.17 63.64.04.04.08.08.13.12.16 6.52.18 12.31-.1 18.86-.34 10.22-1.26 21.12-2.95 32.56-.54 4.72-1.7 18.71-1.92 27.11.05.81.05 1.64-.04 2.47 0-.75.01-1.58.04-2.47-.02-.34-.05-.67-.1-1 .14 19.77 4.75 35.32 13.81 46.39 1.62 1.29 3.72 2.18 5.2 2.71-1.16-.92-1.91-2.31-1.91-3.9 0-.73.12-3.84 1.93-8.59-8.78-13.4-11.21-33.81-7.19-60.81 4.21-28.24 3.94-53.91 1.38-74.69-.59-4.81-1.31-9.35-2.13-13.61-3.12-16.36-7.66-28.42-12.09-34.47-.84-1.79-5.95-14.1-.98-37.7.03-.13.05-.26.08-.39 1.57-7.34 2.71-14.32 3.21-21.36 1.04-14.52-.66-29.3-6.98-47.94-1.22-3.61-2.62-7.37-4.2-11.3-1.31-3.24-2.74-6.6-4.31-10.08l-.21-.48-4.56 2.06-3.7 3.36Z" class="cls-3"/><path d="M424.76 306.28 432 309c.45.14 1.02.32 1.66.54-2.99-1.27-5.96-2.36-8.9-3.26M422.23 305.56c-1.04-.28-2.08-.55-3.11-.78z" class="cls-8"/><path d="M466.21 330.78c.45.4.86.79 1.25 1.15 1.59 1.49 2.72 2.62 3.32 3.25.33.34.51.53.52.55l3.7-3.36 3.7-3.36c-.32-.35-4.93-5.37-12.73-11.55-.64-.5-1.29-1.01-1.96-1.53-.07-.05-.14-.11-.21-.16-.64-.49-1.31-.98-1.99-1.48l-.33-.24c-.7-.51-1.43-1.03-2.17-1.54-.16-.11-.32-.22-.48-.34-.75-.52-1.51-1.04-2.29-1.55-.13-.09-.26-.17-.39-.26-.77-.5-1.55-1.01-2.35-1.51-.09-.05-.17-.11-.26-.16-.84-.52-1.7-1.04-2.57-1.56-.18-.1-.35-.21-.53-.31-.87-.51-1.75-1.01-2.65-1.5-.16-.09-.33-.18-.5-.27-.95-.52-1.91-1.03-2.89-1.53-9.5-4.84-18.98-7.98-28.31-9.44-1.7-.27-3.39-.47-5.07-.63-2.53-.23-5.04-.34-7.54-.32-13.33.11-26.24 3.79-38.34 11.03-2.31 1.38-4.65 2.51-6.98 3.36-.78.28-1.55.54-2.33.76-.7.2-1.47.42-2.3.65-5.85 1.64-15.05 4.11-28.3 7.37l-6.89 2.39 1.65 4.72 1.65 4.72 1.47-.51 4.74-1.66c2.41-.59 4.67-1.16 6.82-1.7 11.37-2.87 19.16-5 23.92-6.37 1.47-.42 2.95-.93 4.42-1.52 2.45-.98 4.88-2.2 7.28-3.63 12.79-7.66 26.3-10.77 40.39-9.34.44-.29.96-.49 1.33-.4l7.12 1.78c1.03.23 2.07.5 3.11.78l1.77.44.76.28c2.95.9 5.91 1.98 8.9 3.26 2.54.87 6.13 2.26 7.34 3.46l-.02.02c11.17 5.86 20.04 13.06 25.22 17.76M554 635c-.74.4-1.45.81-2.14 1.22-4.64 3.09-10.36 7.45-17.36 13.6-3 2.63-7.54 4.83-12.03 6-.16.06-.3.12-.46.18-1.46.52-2.97.77-4.59.68-.47.03-.93.05-1.37.05-1.17 0-2.24-.42-3.09-1.1-1.47-.54-3.57-1.42-5.2-2.71-.71-.56-1.32-1.2-1.75-1.92 0 8-1 9-2.49 12.12-.54 1.12-1.05 2.32-1.54 3.47l23.31 16.51-15.14 20.61-20.56-14.56c-.2.27-.33.53-.51.79-4.3 5.85-8.77 10.97-13.41 15.3-4.68 4.34-9.1 7.93-13.26 10.81-4.2 2.89-7.97 5.06-11.36 6.58s-6.07 2.43-8.05 2.74c-1.98.32-4.25-.05-6.78-1.11-2.55-1.08-5.86-3.03-9.95-5.93-2.75-1.95-5-3.67-6.74-5.19s-3.03-2.85-3.92-4.08c-.88-1.23-1.32-2.31-1.32-3.33 0-.98.31-1.92.95-2.8.89-1.22 2.88-2.42 6-3.62 3.11-1.18 6.84-2.9 11.17-5.13 4.36-2.23 9.01-5.25 14.08-9.05 5.01-3.81 9.88-8.9 14.56-15.28 3.08-4.19 5.32-8.31 6.73-12.35s2.06-7.88 1.87-11.52-1.2-7.03-3.04-10.22c-1.87-3.2-4.47-5.97-7.89-8.39-3.91-2.77-8.04-4.07-12.39-3.99-4.34.12-8.82 1.09-13.49 2.91-4.64 1.81-9.47 4.19-14.53 7.11s-10.32 5.88-15.78 8.94c-5.46 3.02-11.12 5.73-17 8.07-5.85 2.36-11.88 3.89-18.12 4.57s-12.74.25-19.41-1.32c-6.69-1.55-13.65-4.88-20.84-9.98-8.28-5.87-14.43-12.52-18.49-19.94-4.04-7.45-6.28-15.18-6.64-23.22-.36-8.03.96-16.24 4.01-24.63 1.55-4.32 3.51-8.54 5.77-12.68l-22.08-15.63 15.14-20.61 22.08 15.63c.71-.74 1.27-1.59 1.99-2.32 3.56-3.57 7.16-6.75 10.79-9.47 3.62-2.76 7.06-5.01 10.4-6.78 3.31-1.77 5.71-2.78 7.25-3.02 1.52-.26 2.69-.3 3.55-.19.83.15 1.85.48 3.05.98 1.18.52 2.58 1.26 4.21 2.31 1.6 1 3.57 2.34 5.88 3.97 2.58 1.83 4.74 3.45 6.44 4.85 1.55 1.38 2.89 2.65 3.81 3.78.94 1.15 1.45 2.18 1.59 3.1.12.94-.18 1.88-.89 2.84s-2.41 2.05-5.21 3.29c-2.8 1.2-6.02 2.85-9.7 4.86-3.7 2.03-7.61 4.62-11.78 7.78-4.15 3.18-7.96 7.17-11.49 11.97-2.77 3.77-4.73 7.36-5.83 10.82-1.13 3.44-1.55 6.71-1.3 9.72.26 3.05 1.23 5.84 2.83 8.38 1.62 2.52 3.74 4.72 6.3 6.53q5.76 4.08 12.21 3.96c4.31-.07 8.82-1.05 13.54-2.97 4.74-1.9 9.63-4.37 14.75-7.4 5.11-2.98 10.42-6.01 15.87-9.06 5.53-3.05 11.24-5.78 17.09-8.2 5.93-2.46 12.04-4.06 18.31-4.78s12.73-.32 19.39 1.17c6.66 1.53 13.4 2.89 20.02 8.28 4.97 4.05 12.84 11.07 13.94 19.53.04.33.07.66.1 1 .22-8.4 1.38-22.39 1.92-27.11.02-.15.03-.29.05-.42 1.69-14.06 2.54-23.72 2.9-32.14.28-6.55.26-12.34.1-18.86-.04-.04-.08-.08-.13-.12-6.46-6.19-8.67-9.03-16.35-14.47-69.61-49.3-159.65-43.98-203.02 11.39l-2.06 2.72c-42.53 57.91-19.62 145.45 51.12 195.54 70.73 50.09 162.56 43.8 205.09-14.11 18.63-25.37 25.37-43.85 20.36-74.95Z" class="cls-3"/><path d="M494.04 607.53c-.02.89-.04 1.72-.04 2.47.08-.84.09-1.66.04-2.47" class="cls-3"/><ellipse cx="266.96" cy="807.92" class="cls-3" rx="39" ry="52.33" transform="rotate(-55.93 266.99422948 807.95507683)"/><path d="M157.38 857.8c35.24 33.76 75.46 62.35 119.45 84.59zM277.43 528.52l2.06-2.72 148.85-196.12 12.64-16.66.02-.02c-1.22-1.19-4.81-2.59-7.34-3.46-.64-.22-1.21-.4-1.66-.54l-7.24-2.72-.76-.28-1.77-.44-3.11-.78L412 303c-.37-.09-.89.12-1.33.4-.28.18-.53.4-.67.6l-17.44 23.61L75.94 756.23c5.11 8.43 10.46 16.7 16.04 24.79l185.45-252.51ZM629.54 625.62c-3.38.86-6.75 1.81-10.08 2.86-6.89 2.18-14.33 3.25-21.99 3.25-1.34 0-2.67-.02-3.99-.05l-59.84 78.27L342.73 969.9c8.78 2.94 17.67 5.64 26.67 8.09z" class="cls-3"/><path d="m749.78 621.89-39.77-2.31-83.98 119.63c35.9-28.69 100.61-75.21 174.04-103.87 2.18-.85 4.48-1.67 7.25-2.59 8.91-2.94 17.88-7.71 20.55-12.56-2.76-.89-7.93-2.03-16.79-2.33-7.61-.18-18.11.18-30.94 2.16-4.08.63-8.16.98-12.15 1.08-6.06.84-12.18 1.11-18.2.78Z" class="cls-8"/><path d="M829.62 620.4c-3.23-1.02-6.19-1.66-9.05-1.96-2.31-.24-5.52-.48-9.5-.58 8.86.31 14.04 1.44 16.79 2.33-2.66 4.84-11.64 9.62-20.55 12.56-2.77.91-5.07 1.74-7.25 2.59-73.43 28.66-138.13 75.18-174.04 103.87L710 619.58l39.77 2.31c6.02.33 12.14.06 18.2-.78-.44.01-.89.03-1.33.04-10.98.1-29.93-.38-57.99-3.22-.65-.03-4.11-.18-9.57-.19l-.1.14-69.01 98.31-34.45 49.08c-1.47 2.1-1.12 4.97.81 6.65.94.82 2.11 1.23 3.28 1.23.33 0 .66-.04.99-.1.71-.14 1.39-.46 2-.92.14-.11.29-.2.43-.33.9-.84 90.96-84.31 200.67-127.13 2.01-.79 4.16-1.55 6.75-2.41 9.12-3.01 23.59-9.31 27.3-19.72-2.43-.5-5.17-1.19-8.14-2.12Z" class="cls-3"/><path d="M751.84 522.99c-4.85 4.28-10.27 7.77-16.09 10.37l-29.03 12.96c-6.86 3.06-13.47 7.04-19.63 11.81-15.51 12.01-22.25 12.59-25.97 11.99-.73-.12-1.52-.18-2.35-.18-7.8 0-19.73 4.95-22.78 10.94-1.7 3.35-4.23 6.47-7.52 9.29-4.79 4.12-10.9 6.64-17.68 7.31-14.92 1.46-20.58 4.65-27.74 8.69-2.18 1.23-4.43 2.49-7.06 3.79-5.13 2.52-10.61 4.14-16.27 4.82-6.02.72-11.59 2.96-16.1 6.47-12.49 9.74-18.08 18.29-20.58 23.86 1.92-.78 3.68-1.77 4.85-2.79 19.75-17.34 34.37-25.16 43.47-23.21l.42.09c4.01.86 7.8 1.67 11.61 1.98 4.45.36 9.2.55 14.09.56h.21c6.59 0 12.9-.94 18.74-2.78 42.86-13.56 90.84-11.12 92.86-11.01.08 0 .16 0 .23.02 29.13 2.96 48.22 3.27 57.02 3.19 3.93-.04 7.99-.37 12.05-1 19.62-3.03 34.22-2.57 43.01-1.65 3.53.37 7.14 1.15 11.02 2.37 9.38 2.96 16.17 3.03 16.24 3.03h.07c2.73-2.57 9.62-16.68 18.68-55.07 1.22-5.16 1.81-10.73 1.76-16.57-.12-14.9 2.18-25.51 3.18-29.39.29-1.13.57-2.26.83-3.4 4.49-20.22 3.09-29.9 1.59-34.18-1.22 1.36-2.65 2.56-4.28 3.54-9.51 5.71-28.36 14.38-55.05 14.38-3.26 0-6.65-.14-10.14-.42-22.29 4.43-44.14 21.79-53.68 30.2Z" class="cls-5"/><path d="M874.98 475.29c1.5 4.28 2.9 13.96-1.59 34.18-.25 1.14-.54 2.27-.83 3.4-1 3.87-3.3 14.48-3.18 29.39.05 5.84-.55 11.41-1.76 16.57-9.06 38.39-15.95 52.5-18.68 55.07h-.07c-.07 0-6.86-.07-16.24-3.03-3.88-1.22-7.48-2-11.02-2.37-8.79-.92-23.39-1.39-43.01 1.65-4.06.63-8.11.96-12.05 1-8.79.08-27.89-.23-57.02-3.19-.08 0-.15-.01-.23-.02-2.02-.11-50-2.55-92.86 11.01-5.84 1.85-12.15 2.78-18.74 2.78h-.21c-4.9-.01-9.64-.2-14.09-.56-3.81-.31-7.6-1.12-11.61-1.98l-.42-.09c-9.1-1.95-23.73 5.86-43.47 23.21-1.17 1.03-2.94 2.01-4.85 2.79 2.5-5.57 8.09-14.12 20.58-23.86 4.51-3.51 10.07-5.75 16.1-6.47 5.66-.68 11.13-2.3 16.27-4.82 2.64-1.29 4.89-2.56 7.06-3.79 7.16-4.04 12.82-7.22 27.74-8.69 6.77-.67 12.89-3.19 17.68-7.31 3.29-2.82 5.82-5.95 7.52-9.29 3.05-5.99 14.98-10.94 22.78-10.94.84 0 1.63.06 2.35.18 3.72.61 10.46.03 25.97-11.99 6.17-4.77 12.77-8.75 19.63-11.81l29.03-12.96c5.82-2.6 11.23-6.09 16.09-10.37 9.53-8.4 31.39-25.76 53.68-30.2-.91-.07-1.83-.15-2.76-.25-1.79-.18-3.35-1.31-4.07-2.96s-.51-3.56.57-5l.58-.77c-18.01 4.53-34.97 15.71-47.08 25.37-2.78 2.22-5.31 4.35-7.52 6.31-4.09 3.61-8.65 6.55-13.55 8.74l-1.69.76-27.34 12.2c-7.59 3.39-14.88 7.77-21.68 13.03-13.71 10.62-18.05 10.05-18.23 10.02-11.4-1.86-30.11 5.19-35.66 16.1-.18.35-.37.69-.58 1.03-1.1 1.81-2.62 3.56-4.54 5.22-.84.72-1.74 1.36-2.7 1.93-2.74 1.63-5.94 2.66-9.44 3.01-17.02 1.67-24.14 5.68-31.68 9.93-2.05 1.16-4.18 2.36-6.56 3.52-4.12 2.02-8.51 3.32-13.05 3.87-7.83.93-15.12 3.88-21.06 8.51-15.37 11.99-21.81 22.71-24.51 29.78-1.81 4.75-1.93 7.86-1.93 8.59 0 1.59.76 2.99 1.91 3.9.85.68 1.92 1.1 3.09 1.1.45 0 .91-.02 1.37-.05 1.62-.11 3.33-.41 5.06-.86 4.49-1.17 9.03-3.36 12.03-6 7-6.15 12.72-10.51 17.36-13.6 12.08-8.06 16.77-7.48 17.43-7.34l.42.09c4.15.89 8.44 1.8 12.9 2.16 3.48.28 7.13.46 10.88.55 1.32.03 2.65.05 3.99.05 7.66 0 15.1-1.07 21.99-3.25 3.32-1.05 6.69-2 10.08-2.86 26.72-6.79 54.36-7.87 68.88-7.89h.66c5.46 0 8.93.16 9.57.19 28.06 2.84 47.01 3.32 57.99 3.22.44 0 .89-.03 1.33-.04 3.99-.1 8.07-.45 12.15-1.08 12.83-1.98 23.33-2.34 30.94-2.16 3.99.1 7.19.34 9.5.58 2.86.3 5.82.94 9.05 1.96 2.96.94 5.7 1.62 8.14 2.12 5.3 1.09 9.12 1.32 10.52 1.36 1.4.24 3.29.15 5.37-1.08 2.63-1.55 10.62-6.26 23.71-61.68 1.4-5.94 2.08-12.31 2.03-18.95-.12-14.11 2.16-24.09 2.86-26.81.32-1.24.63-2.47.91-3.72 7.6-34.24.15-44.4-3.58-47.22-.07.6-.13 1.19-.23 1.79-.53 3.4-2.07 6.52-4.37 9.08Z" class="cls-3"/><path d="M812.79 483.17c25.85.64 43.86-7.57 52.77-12.92 2.13-1.28 3.56-3.31 3.91-5.57 3-19.3-8.76-32-15.04-37.27l-41.65 55.77Z" class="cls-5"/><path d="M856.05 416.17c-2.21-1.37-5.09-.82-6.64 1.26l-9.14 12.24-40.43 54.14-.58.77c-1.08 1.44-1.3 3.35-.57 5s2.28 2.78 4.07 2.96c.93.09 1.85.17 2.76.25 3.49.28 6.88.42 10.14.42 26.69 0 45.54-8.68 55.05-14.38 1.63-.98 3.05-2.18 4.28-3.54 2.3-2.55 3.84-5.68 4.37-9.08.09-.61.16-1.2.23-1.79 2.86-23.71-11.8-39-19.33-45.16-2.3-1.88-3.93-2.92-4.2-3.09Zm-1.62 11.24c6.27 5.27 18.04 17.97 15.04 37.27-.35 2.26-1.78 4.29-3.91 5.57-8.91 5.35-26.92 13.56-52.77 12.92l41.65-55.77Z" class="cls-3"/><g class="cls-11"><path d="M517.96 870 196 854l-57-56 422.1 14.76z" class="cls-7"/></g><g class="cls-11"><path d="m585 777-472-17-3.88-6.15C95.74 732.66 84.09 710.35 75 687l-7-13 588 5z" class="cls-7"/></g><g class="cls-11"><path d="m655 717-28 21 41-59h44l-40 26z" class="cls-7"/></g></g><path id="Capa_10" d="M500 34.61c62.84 0 123.79 12.3 181.14 36.56 55.42 23.44 105.19 57 147.94 99.75s76.31 92.52 99.75 147.94c24.26 57.36 36.56 118.3 36.56 181.14s-12.3 123.79-36.56 181.14c-23.44 55.42-57 105.19-99.75 147.94s-92.52 76.31-147.94 99.75c-57.36 24.26-118.3 36.56-181.14 36.56s-123.79-12.3-181.14-36.56c-55.42-23.44-105.19-57-147.94-99.75s-76.31-92.52-99.75-147.94C46.91 623.78 34.61 562.84 34.61 500s12.3-123.79 36.56-181.14c23.44-55.42 57-105.19 99.75-147.94s92.52-76.31 147.94-99.75C376.22 46.91 437.16 34.61 500 34.61m0-30C226.4 4.61 4.61 226.4 4.61 500S226.41 995.39 500 995.39 995.39 773.59 995.39 500 773.6 4.61 500 4.61" class="cls-3" data-name="Capa 10"/></svg>